<svg width="20" height="20" viewBox="0 0 20 20" fill="none" xmlns="http://www.w3.org/2000/svg">
<path d="M9.99992 4.99992V3.33325M9.99992 4.99992C9.07944 4.99992 8.33325 5.74611 8.33325 6.66658C8.33325 7.58706 9.07944 8.33325 9.99992 8.33325M9.99992 4.99992C10.9204 4.99992 11.6666 5.74611 11.6666 6.66658C11.6666 7.58706 10.9204 8.33325 9.99992 8.33325M4.99992 14.9999C5.92039 14.9999 6.66658 14.2537 6.66658 13.3333C6.66658 12.4128 5.92039 11.6666 4.99992 11.6666M4.99992 14.9999C4.07944 14.9999 3.33325 14.2537 3.33325 13.3333C3.33325 12.4128 4.07944 11.6666 4.99992 11.6666M4.99992 14.9999V16.6666M4.99992 11.6666V3.33325M9.99992 8.33325V16.6666M14.9999 14.9999C15.9204 14.9999 16.6666 14.2537 16.6666 13.3333C16.6666 12.4128 15.9204 11.6666 14.9999 11.6666M14.9999 14.9999C14.0794 14.9999 13.3333 14.2537 13.3333 13.3333C13.3333 12.4128 14.0794 11.6666 14.9999 11.6666M14.9999 14.9999V16.6666M14.9999 11.6666V7.49992V3.33325" stroke="black" stroke-width="1.7" stroke-linecap="round" stroke-linejoin="round"/>
</svg>
