<svg width="20" height="20" viewBox="0 0 20 20" fill="none" xmlns="http://www.w3.org/2000/svg">
<path d="M16.5249 16.6665C17.1515 16.0388 17.503 15.1879 17.5023 14.301C17.5015 13.4142 17.1484 12.5639 16.5207 11.9373C15.8931 11.3107 15.0422 10.9592 14.1553 10.96C13.2684 10.9607 12.4181 11.3138 11.7916 11.9415M16.5249 16.6665C15.8983 17.2942 15.0481 17.6472 14.1612 17.648C13.2743 17.6488 12.4234 17.2972 11.7957 16.6707C11.1681 16.0441 10.815 15.1938 10.8142 14.3069C10.8134 13.42 11.165 12.5692 11.7916 11.9415M16.5249 16.6665L11.7916 11.9415" stroke="black" stroke-width="1.7" stroke-linecap="round" stroke-linejoin="round"/>
<path d="M17.5 9.49993C17.5 9.35827 17.5 9.20827 17.5 9.05827C17.5 5.37493 14.1667 2.3916 10 2.3916C5.83333 2.3916 2.5 5.37493 2.5 9.05827C2.50217 10.3406 2.91061 11.5892 3.66667 12.6249L2.5 15.7249L6.45 14.9333C7.10805 15.2454 7.80645 15.4642 8.525 15.5833" stroke="black" stroke-width="2" stroke-linecap="round" stroke-linejoin="round"/>
<path d="M6.66675 9.05835H6.67508" stroke="black" stroke-width="2" stroke-linecap="round" stroke-linejoin="round"/>
<path d="M10 9.05835H10.0083" stroke="black" stroke-width="2" stroke-linecap="round" stroke-linejoin="round"/>
<path d="M13.3333 9.05835H13.3416" stroke="black" stroke-width="2" stroke-linecap="round" stroke-linejoin="round"/>
</svg>
