<svg width="20" height="20" viewBox="0 0 20 20" fill="none" xmlns="http://www.w3.org/2000/svg">
<path d="M7.5 13.3333H8.5C8.5 12.781 8.05228 12.3333 7.5 12.3333V13.3333ZM7.5 17.4999H6.5C6.5 17.9044 6.74364 18.269 7.11732 18.4238C7.49099 18.5786 7.92111 18.493 8.20711 18.207L7.5 17.4999ZM11.6667 13.3333V12.3333C11.4015 12.3333 11.1471 12.4386 10.9596 12.6261L11.6667 13.3333ZM6.66667 7.33325C6.11438 7.33325 5.66667 7.78097 5.66667 8.33325C5.66667 8.88554 6.11438 9.33325 6.66667 9.33325V7.33325ZM6.675 9.33325C7.22728 9.33325 7.675 8.88554 7.675 8.33325C7.675 7.78097 7.22728 7.33325 6.675 7.33325V9.33325ZM10 7.33325C9.44772 7.33325 9 7.78097 9 8.33325C9 8.88554 9.44772 9.33325 10 9.33325V7.33325ZM10.0083 9.33325C10.5606 9.33325 11.0083 8.88554 11.0083 8.33325C11.0083 7.78097 10.5606 7.33325 10.0083 7.33325V9.33325ZM13.3333 7.33325C12.781 7.33325 12.3333 7.78097 12.3333 8.33325C12.3333 8.88554 12.781 9.33325 13.3333 9.33325V7.33325ZM13.3417 9.33325C13.894 9.33325 14.3417 8.88554 14.3417 8.33325C14.3417 7.78097 13.894 7.33325 13.3417 7.33325V9.33325ZM4.16667 4.33325H15.8333V2.33325H4.16667V4.33325ZM16.5 4.99992V11.6666H18.5V4.99992H16.5ZM3.5 11.6666V4.99992H1.5V11.6666H3.5ZM7.5 12.3333H4.16667V14.3333H7.5V12.3333ZM8.5 17.4999V13.3333H6.5V17.4999H8.5ZM15.8333 12.3333H11.6667V14.3333H15.8333V12.3333ZM10.9596 12.6261L6.79289 16.7928L8.20711 18.207L12.3738 14.0404L10.9596 12.6261ZM1.5 11.6666C1.5 13.1393 2.69391 14.3333 4.16667 14.3333V12.3333C3.79848 12.3333 3.5 12.0348 3.5 11.6666H1.5ZM16.5 11.6666C16.5 12.0348 16.2015 12.3333 15.8333 12.3333V14.3333C17.3061 14.3333 18.5 13.1393 18.5 11.6666H16.5ZM15.8333 4.33325C16.2015 4.33325 16.5 4.63173 16.5 4.99992H18.5C18.5 3.52716 17.3061 2.33325 15.8333 2.33325V4.33325ZM4.16667 2.33325C2.69391 2.33325 1.5 3.52716 1.5 4.99992H3.5C3.5 4.63173 3.79848 4.33325 4.16667 4.33325V2.33325ZM6.66667 9.33325H6.675V7.33325H6.66667V9.33325ZM10 9.33325H10.0083V7.33325H10V9.33325ZM13.3333 9.33325H13.3417V7.33325H13.3333V9.33325Z" fill="black"/>
</svg>
