<svg width="20" height="20" viewBox="0 0 20 20" fill="none" xmlns="http://www.w3.org/2000/svg">
<path d="M5.83333 11.6666H6.83333C6.83333 11.1143 6.38562 10.6666 5.83333 10.6666V11.6666ZM5.83333 14.9999H4.83333C4.83333 15.4044 5.07698 15.769 5.45065 15.9238C5.82432 16.0786 6.25444 15.993 6.54044 15.707L5.83333 14.9999ZM9.16667 11.6666V10.6666C8.90145 10.6666 8.6471 10.7719 8.45956 10.9595L9.16667 11.6666ZM14.1667 14.9999V13.9999C13.6144 13.9999 13.1667 14.4476 13.1667 14.9999H14.1667ZM14.1667 18.3333L13.4596 19.0404C13.7456 19.3264 14.1757 19.4119 14.5493 19.2571C14.923 19.1024 15.1667 18.7377 15.1667 18.3333H14.1667ZM10.8333 14.9999L11.5404 14.2928C11.3529 14.1053 11.0985 13.9999 10.8333 13.9999V14.9999ZM14.1667 5.66659C13.6144 5.66659 13.1667 6.1143 13.1667 6.66659C13.1667 7.21887 13.6144 7.66658 14.1667 7.66658V5.66659ZM6.32149 14.5118L5.61438 13.8047H5.61438L6.32149 14.5118ZM4.16667 4.33325H12.5V2.33325H4.16667V4.33325ZM13.1667 4.99992V9.99992H15.1667V4.99992H13.1667ZM3.5 9.99992V4.99992H1.5V9.99992H3.5ZM5.83333 10.6666H4.16667V12.6666H5.83333V10.6666ZM6.83333 14.9999V11.6666H4.83333V14.9999H6.83333ZM12.5 10.6666H9.16667V12.6666H12.5V10.6666ZM1.5 9.99992C1.5 11.4727 2.69391 12.6666 4.16667 12.6666V10.6666C3.79848 10.6666 3.5 10.3681 3.5 9.99992H1.5ZM13.1667 9.99992C13.1667 10.3681 12.8682 10.6666 12.5 10.6666V12.6666C13.9728 12.6666 15.1667 11.4727 15.1667 9.99992H13.1667ZM12.5 4.33325C12.8682 4.33325 13.1667 4.63173 13.1667 4.99992H15.1667C15.1667 3.52716 13.9728 2.33325 12.5 2.33325V4.33325ZM4.16667 2.33325C2.69391 2.33325 1.5 3.52716 1.5 4.99992H3.5C3.5 4.63173 3.79848 4.33325 4.16667 4.33325V2.33325ZM18.5 13.3333V8.33325H16.5V13.3333H18.5ZM14.1667 15.9999H15.8333V13.9999H14.1667V15.9999ZM15.1667 18.3333V14.9999H13.1667V18.3333H15.1667ZM7.5 15.9999H10.8333V13.9999H7.5V15.9999ZM10.1262 15.707L13.4596 19.0404L14.8738 17.6261L11.5404 14.2928L10.1262 15.707ZM16.5 13.3333C16.5 13.7014 16.2015 13.9999 15.8333 13.9999V15.9999C17.3061 15.9999 18.5 14.806 18.5 13.3333H16.5ZM15.8333 7.66658C16.2015 7.66658 16.5 7.96506 16.5 8.33325H18.5C18.5 6.86049 17.3061 5.66659 15.8333 5.66659V7.66658ZM15.8333 5.66659H14.1667V7.66658H15.8333V5.66659ZM5.61438 15.2189C6.09586 15.7003 6.7639 15.9999 7.5 15.9999V13.9999C7.31563 13.9999 7.15033 13.9264 7.0286 13.8047L5.61438 15.2189ZM8.45956 10.9595L5.61438 13.8047L7.0286 15.2189L9.87377 12.3737L8.45956 10.9595ZM5.61438 13.8047L5.12623 14.2928L6.54044 15.707L7.0286 15.2189L5.61438 13.8047Z" fill="black"/>
</svg>
