<svg width="20" height="20" viewBox="0 0 20 20" fill="none" xmlns="http://www.w3.org/2000/svg">
<path d="M13.9999 8.33333C13.9999 8.88562 14.4476 9.33333 14.9999 9.33333C15.5522 9.33333 15.9999 8.88562 15.9999 8.33333H13.9999ZM15.9999 15C15.9999 14.4477 15.5522 14 14.9999 14C14.4476 14 13.9999 14.4477 13.9999 15H15.9999ZM16.6666 12.6667C17.2189 12.6667 17.6666 12.219 17.6666 11.6667C17.6666 11.1144 17.2189 10.6667 16.6666 10.6667V12.6667ZM8.33325 11.6667L7.62614 10.9596C7.23562 11.3501 7.23562 11.9832 7.62614 12.3738L8.33325 11.6667ZM11.5404 9.87377C11.9309 9.48325 11.9309 8.85008 11.5404 8.45956C11.1498 8.06904 10.5167 8.06904 10.1261 8.45956L11.5404 9.87377ZM10.1261 14.8738C10.5167 15.2643 11.1498 15.2643 11.5404 14.8738C11.9309 14.4832 11.9309 13.8501 11.5404 13.4596L10.1261 14.8738ZM13.3333 16.5H4.99992V18.5H13.3333V16.5ZM4.33325 15.8333V5.83333H2.33325V15.8333H4.33325ZM4.99992 5.16667H6.66659V3.16667H4.99992V5.16667ZM11.6666 5.16667H13.3333V3.16667H11.6666V5.16667ZM13.9999 5.83333V8.33333H15.9999V5.83333H13.9999ZM13.9999 15V15.8333H15.9999V15H13.9999ZM4.99992 16.5C4.63173 16.5 4.33325 16.2015 4.33325 15.8333H2.33325C2.33325 17.3061 3.52716 18.5 4.99992 18.5V16.5ZM13.3333 18.5C14.806 18.5 15.9999 17.3061 15.9999 15.8333H13.9999C13.9999 16.2015 13.7014 16.5 13.3333 16.5V18.5ZM13.3333 5.16667C13.7014 5.16667 13.9999 5.46514 13.9999 5.83333H15.9999C15.9999 4.36057 14.806 3.16667 13.3333 3.16667V5.16667ZM4.33325 5.83333C4.33325 5.46514 4.63173 5.16667 4.99992 5.16667V3.16667C3.52716 3.16667 2.33325 4.36057 2.33325 5.83333H4.33325ZM8.33325 3.5H9.99992V1.5H8.33325V3.5ZM9.99992 4.83333H8.33325V6.83333H9.99992V4.83333ZM8.33325 4.83333C7.96506 4.83333 7.66658 4.53486 7.66658 4.16667H5.66659C5.66659 5.63943 6.86049 6.83333 8.33325 6.83333V4.83333ZM10.6666 4.16667C10.6666 4.53486 10.3681 4.83333 9.99992 4.83333V6.83333C11.4727 6.83333 12.6666 5.63943 12.6666 4.16667H10.6666ZM9.99992 3.5C10.3681 3.5 10.6666 3.79848 10.6666 4.16667H12.6666C12.6666 2.69391 11.4727 1.5 9.99992 1.5V3.5ZM8.33325 1.5C6.86049 1.5 5.66659 2.69391 5.66659 4.16667H7.66658C7.66658 3.79848 7.96506 3.5 8.33325 3.5V1.5ZM16.6666 10.6667H8.33325V12.6667H16.6666V10.6667ZM10.1261 8.45956L7.62614 10.9596L9.04036 12.3738L11.5404 9.87377L10.1261 8.45956ZM7.62614 12.3738L10.1261 14.8738L11.5404 13.4596L9.04036 10.9596L7.62614 12.3738Z" fill="black"/>
</svg>
