<svg width="20" height="20" viewBox="0 0 20 20" fill="none" xmlns="http://www.w3.org/2000/svg">
<path d="M8.20719 10.9596C7.81666 10.569 7.1835 10.569 6.79297 10.9596C6.40245 11.3501 6.40245 11.9832 6.79297 12.3738L8.20719 10.9596ZM9.16675 13.3333L8.45964 14.0404C8.85017 14.431 9.48333 14.431 9.87386 14.0404L9.16675 13.3333ZM13.2072 10.7071C13.5977 10.3166 13.5977 9.68342 13.2072 9.29289C12.8167 8.90237 12.1835 8.90237 11.793 9.29289L13.2072 10.7071ZM14.8334 5.83333V15.8333H16.8334V5.83333H14.8334ZM14.1667 16.5H5.83341V18.5H14.1667V16.5ZM5.16675 15.8333V5.83333H3.16675V15.8333H5.16675ZM5.83341 5.16667H7.50008V3.16667H5.83341V5.16667ZM12.5001 5.16667H14.1667V3.16667H12.5001V5.16667ZM5.83341 16.5C5.46522 16.5 5.16675 16.2015 5.16675 15.8333H3.16675C3.16675 17.3061 4.36066 18.5 5.83341 18.5V16.5ZM14.8334 15.8333C14.8334 16.2015 14.5349 16.5 14.1667 16.5V18.5C15.6395 18.5 16.8334 17.3061 16.8334 15.8333H14.8334ZM16.8334 5.83333C16.8334 4.36057 15.6395 3.16667 14.1667 3.16667V5.16667C14.5349 5.16667 14.8334 5.46514 14.8334 5.83333H16.8334ZM5.16675 5.83333C5.16675 5.46514 5.46522 5.16667 5.83341 5.16667V3.16667C4.36066 3.16667 3.16675 4.36057 3.16675 5.83333H5.16675ZM6.79297 12.3738L8.45964 14.0404L9.87386 12.6262L8.20719 10.9596L6.79297 12.3738ZM9.87386 14.0404L13.2072 10.7071L11.793 9.29289L8.45964 12.6262L9.87386 14.0404ZM9.16675 3.5H10.8334V1.5H9.16675V3.5ZM10.8334 4.83333H9.16675V6.83333H10.8334V4.83333ZM9.16675 4.83333C8.79856 4.83333 8.50008 4.53486 8.50008 4.16667H6.50008C6.50008 5.63943 7.69399 6.83333 9.16675 6.83333V4.83333ZM11.5001 4.16667C11.5001 4.53486 11.2016 4.83333 10.8334 4.83333V6.83333C12.3062 6.83333 13.5001 5.63943 13.5001 4.16667H11.5001ZM10.8334 3.5C11.2016 3.5 11.5001 3.79848 11.5001 4.16667H13.5001C13.5001 2.69391 12.3062 1.5 10.8334 1.5V3.5ZM9.16675 1.5C7.69399 1.5 6.50008 2.69391 6.50008 4.16667H8.50008C8.50008 3.79848 8.79856 3.5 9.16675 3.5V1.5Z" fill="black"/>
</svg>
