<svg width="20" height="20" viewBox="0 0 20 20" fill="none" xmlns="http://www.w3.org/2000/svg">
<path fill-rule="evenodd" clip-rule="evenodd" d="M3 4C3 2.89543 3.89543 2 5 2H15C16.1046 2 17 2.89543 17 4V12C17 13.1046 16.1046 14 15 14H12.7808L12.903 14.4887L13.7071 15.2929C13.9931 15.5789 14.0787 16.009 13.9239 16.3827C13.7691 16.7563 13.4045 17 13 17H7.00003C6.59557 17 6.23093 16.7563 6.07615 16.3827C5.92137 16.009 6.00692 15.5789 6.29292 15.2929L7.09706 14.4887L7.21925 14H5C3.89543 14 3 13.1046 3 12V4ZM8.7713 11C8.75657 10.9997 8.74189 10.9997 8.72725 11H5V4H15V11H11.2728C11.2582 10.9997 11.2435 10.9997 11.2288 11H8.7713Z" fill="black"/>
</svg>
