<svg width="20" height="20" viewBox="0 0 20 20" fill="none" xmlns="http://www.w3.org/2000/svg">
<path d="M11.0775 2.74408L10.3704 3.45118V3.45118L11.0775 2.74408ZM15.5893 7.25592L16.2964 6.54882L15.5893 7.25592ZM14.1667 16.5H5.83341V18.5H14.1667V16.5ZM5.16675 15.8333V4.16667H3.16675V15.8333H5.16675ZM5.83341 3.5H10.4882V1.5H5.83341V3.5ZM14.8334 7.84518V15.8333H16.8334V7.84518H14.8334ZM10.3704 3.45118L14.8822 7.96303L16.2964 6.54882L11.7846 2.03697L10.3704 3.45118ZM16.8334 7.84518C16.8334 7.35895 16.6403 6.89263 16.2964 6.54882L14.8822 7.96303C14.851 7.93177 14.8334 7.88938 14.8334 7.84518H16.8334ZM10.4882 3.5C10.444 3.5 10.4016 3.48244 10.3704 3.45118L11.7846 2.03697C11.4408 1.69315 10.9745 1.5 10.4882 1.5V3.5ZM5.83341 16.5C5.46522 16.5 5.16675 16.2015 5.16675 15.8333H3.16675C3.16675 17.3061 4.36066 18.5 5.83341 18.5V16.5ZM14.1667 18.5C15.6395 18.5 16.8334 17.3061 16.8334 15.8333H14.8334C14.8334 16.2015 14.5349 16.5 14.1667 16.5V18.5ZM5.16675 4.16667C5.16675 3.79848 5.46522 3.5 5.83341 3.5V1.5C4.36066 1.5 3.16675 2.69391 3.16675 4.16667H5.16675Z" fill="black"/>
</svg>
