<svg width="20" height="20" viewBox="0 0 20 20" fill="none" xmlns="http://www.w3.org/2000/svg">
<path d="M4.33325 13.3334C4.33325 12.7811 3.88554 12.3334 3.33325 12.3334C2.78097 12.3334 2.33325 12.7811 2.33325 13.3334L4.33325 13.3334ZM17.6666 13.3334C17.6666 12.7811 17.2189 12.3334 16.6666 12.3334C16.1143 12.3334 15.6666 12.7811 15.6666 13.3334L17.6666 13.3334ZM14.0404 10.7072C14.4309 10.3167 14.4309 9.6835 14.0404 9.29297C13.6498 8.90245 13.0167 8.90245 12.6261 9.29297L14.0404 10.7072ZM9.99992 13.3334L9.29281 14.0405C9.68334 14.431 10.3165 14.431 10.707 14.0405L9.99992 13.3334ZM7.37369 9.29297C6.98317 8.90245 6.35 8.90245 5.95948 9.29297C5.56895 9.6835 5.56895 10.3167 5.95948 10.7072L7.37369 9.29297ZM10.9999 3.33341C10.9999 2.78113 10.5522 2.33341 9.99992 2.33341C9.44763 2.33341 8.99992 2.78113 8.99992 3.33341L10.9999 3.33341ZM14.1666 15.6667L5.83325 15.6667L5.83325 17.6667L14.1666 17.6667L14.1666 15.6667ZM4.33325 14.1667L4.33325 13.3334L2.33325 13.3334L2.33325 14.1667L4.33325 14.1667ZM15.6666 13.3334L15.6666 14.1667L17.6666 14.1667L17.6666 13.3334L15.6666 13.3334ZM14.1666 17.6667C16.0996 17.6667 17.6666 16.0997 17.6666 14.1667L15.6666 14.1667C15.6666 14.9952 14.995 15.6667 14.1666 15.6667L14.1666 17.6667ZM5.83325 15.6667C5.00482 15.6667 4.33325 14.9952 4.33325 14.1667L2.33325 14.1667C2.33325 16.0997 3.90026 17.6667 5.83325 17.6667L5.83325 15.6667ZM12.6261 9.29297L9.29281 12.6263L10.707 14.0405L14.0404 10.7072L12.6261 9.29297ZM10.707 12.6263L7.37369 9.29297L5.95948 10.7072L9.29281 14.0405L10.707 12.6263ZM10.9999 13.3334L10.9999 3.33341L8.99992 3.33341L8.99992 13.3334L10.9999 13.3334Z" fill="black"/>
</svg>
