<svg width="20" height="20" viewBox="0 0 20 20" fill="none" xmlns="http://www.w3.org/2000/svg">
<path fill-rule="evenodd" clip-rule="evenodd" d="M8.25706 4.01948C9.02167 2.66017 10.9788 2.66017 11.7434 4.01948L17.3237 13.94C18.0736 15.2732 17.1102 16.9205 15.5805 16.9205H4.4199C2.89025 16.9205 1.92682 15.2732 2.67675 13.94L8.25706 4.01948ZM11.0001 13.9207C11.0001 14.4729 10.5524 14.9207 10.0001 14.9207C9.44784 14.9207 9.00012 14.4729 9.00012 13.9207C9.00012 13.3684 9.44784 12.9207 10.0001 12.9207C10.5524 12.9207 11.0001 13.3684 11.0001 13.9207ZM10.0001 5.92065C9.44784 5.92065 9.00012 6.36837 9.00012 6.92065V9.92065C9.00012 10.4729 9.44784 10.9207 10.0001 10.9207C10.5524 10.9207 11.0001 10.4729 11.0001 9.92065V6.92065C11.0001 6.36837 10.5524 5.92065 10.0001 5.92065Z" fill="black"/>
</svg>
