<svg width="20" height="20" viewBox="0 0 20 20" fill="none" xmlns="http://www.w3.org/2000/svg">
<path d="M5.83339 7.91675C5.83339 4.46497 8.63161 1.66675 12.0834 1.66675C15.5352 1.66675 18.3334 4.46497 18.3334 7.91675C18.3334 11.3685 15.5352 14.1667 12.0834 14.1667C10.6546 14.1667 9.33777 13.6873 8.28503 12.8805L6.79523 14.3703L7.98308 15.5582C8.30852 15.8836 8.30852 16.4113 7.98308 16.7367C7.65764 17.0621 7.13001 17.0621 6.80457 16.7367L5.61671 15.5488L3.85032 17.3152C3.52489 17.6407 2.99725 17.6407 2.67181 17.3152C2.34638 16.9898 2.34638 16.4622 2.67181 16.1367L4.4382 14.3703L3.26904 13.2012C2.9436 12.8757 2.9436 12.3481 3.26904 12.0226C3.59447 11.6972 4.12211 11.6972 4.44755 12.0226L5.61671 13.1918L7.10827 11.7003C6.30834 10.65 5.83339 9.33884 5.83339 7.91675Z" fill="black"/>
</svg>
