<svg width="20" height="20" viewBox="0 0 20 20" fill="none" xmlns="http://www.w3.org/2000/svg">
<path fill-rule="evenodd" clip-rule="evenodd" d="M3.1499 2.9999C3.1499 2.53046 3.53046 2.1499 3.9999 2.1499H16.9999C17.4693 2.1499 17.8499 2.53046 17.8499 2.9999V5.9999C17.8499 6.22534 17.7603 6.44154 17.6009 6.60094L12.8499 11.352V13.4999C12.8499 13.7253 12.7603 13.9415 12.6009 14.1009L9.60094 17.1009C9.35784 17.344 8.99224 17.4168 8.67462 17.2852C8.357 17.1536 8.1499 16.8437 8.1499 16.4999V11.352L3.39886 6.60094C3.23946 6.44154 3.1499 6.22534 3.1499 5.9999V2.9999ZM4.8499 3.8499V5.64782L9.60094 10.3989C9.76035 10.5583 9.8499 10.7745 9.8499 10.9999V14.4478L11.1499 13.1478V10.9999C11.1499 10.7745 11.2395 10.5583 11.3989 10.3989L16.1499 5.64782V3.8499H4.8499Z" fill="black"/>
</svg>
