<svg width="20" height="20" viewBox="0 0 20 20" fill="none" xmlns="http://www.w3.org/2000/svg">
<path d="M7.5 4.16675L8.20711 3.45964L7.91421 3.16675H7.5V4.16675ZM9.16667 5.83341L8.45956 6.54052L8.75245 6.83341H9.16667V5.83341ZM13.1667 8.33342C13.1667 8.8857 13.6144 9.33342 14.1667 9.33342C14.719 9.33342 15.1667 8.8857 15.1667 8.33342H13.1667ZM3.5 14.1667V5.83341H1.5V14.1667H3.5ZM4.16667 5.16675H7.5V3.16675H4.16667V5.16675ZM6.79289 4.87385L8.45956 6.54052L9.87377 5.12631L8.20711 3.45964L6.79289 4.87385ZM9.16667 6.83341H12.5V4.83341H9.16667V6.83341ZM12.5 6.83341C12.8682 6.83341 13.1667 7.13189 13.1667 7.50008H15.1667C15.1667 6.02732 13.9728 4.83341 12.5 4.83341V6.83341ZM3.5 5.83341C3.5 5.46522 3.79848 5.16675 4.16667 5.16675V3.16675C2.69391 3.16675 1.5 4.36066 1.5 5.83341H3.5ZM1.5 14.1667C1.5 15.6395 2.69391 16.8334 4.16667 16.8334V14.8334C3.79848 14.8334 3.5 14.5349 3.5 14.1667H1.5ZM13.1667 7.50008V8.33342H15.1667V7.50008H13.1667ZM6.83333 10.0001C6.83333 9.63189 7.13181 9.33342 7.5 9.33342V7.33342C6.02724 7.33342 4.83333 8.52732 4.83333 10.0001H6.83333ZM7.5 9.33342H15.8333V7.33342H7.5V9.33342ZM15.8333 9.33342C16.2015 9.33342 16.5 9.63189 16.5 10.0001H18.5C18.5 8.52732 17.3061 7.33342 15.8333 7.33342V9.33342ZM16.5 10.0001V14.1667H18.5V10.0001H16.5ZM16.5 14.1667C16.5 14.5349 16.2015 14.8334 15.8333 14.8334V16.8334C17.3061 16.8334 18.5 15.6395 18.5 14.1667H16.5ZM15.8333 14.8334H4.16667V16.8334H15.8333V14.8334ZM4.16667 16.8334C5.63943 16.8334 6.83333 15.6395 6.83333 14.1667H4.83333C4.83333 14.5349 4.53486 14.8334 4.16667 14.8334V16.8334ZM6.83333 14.1667V10.0001H4.83333V14.1667H6.83333Z" fill="black"/>
</svg>
