<svg width="20" height="20" viewBox="0 0 20 20" fill="none" xmlns="http://www.w3.org/2000/svg">
<path d="M5.92881 11.3162C3.80244 11.3162 2.07881 9.59233 2.07881 7.46597C2.07881 5.3396 3.80264 3.61597 5.92881 3.61597C8.05498 3.61597 9.779 5.3398 9.779 7.46597C9.77256 9.5898 8.05244 11.3099 5.92881 11.3162ZM5.92881 4.89937C4.51123 4.89937 3.36201 6.04858 3.36201 7.46616C3.36201 8.88374 4.51123 10.033 5.92881 10.033C7.34639 10.033 8.49561 8.88374 8.49561 7.46616C8.49111 6.05034 7.34443 4.90386 5.92881 4.89937ZM9.13721 13.2412H2.72041C2.36592 13.2412 2.07861 12.9539 2.07861 12.5996C2.07861 12.2451 2.36592 11.9578 2.72041 11.9578H9.13721C9.4917 11.9578 9.779 12.2451 9.779 12.5996C9.77881 12.9541 9.4915 13.2412 9.13721 13.2412Z" fill="black" stroke="black" stroke-width="0.5"/>
<path d="M5.92861 16.4497C5.75556 16.4603 5.58603 16.396 5.46337 16.2733C5.40272 16.2127 5.35563 16.1399 5.32523 16.0597C5.29483 15.9795 5.2818 15.8937 5.28701 15.8081V10.6747C5.28701 10.3202 5.57431 10.0329 5.92861 10.0329C6.2831 10.0329 6.57041 10.3202 6.57041 10.6747V15.8081C6.58076 15.9813 6.51669 16.1507 6.39404 16.2733C6.33334 16.334 6.26047 16.381 6.18024 16.4114C6.10001 16.4418 6.01425 16.4549 5.92861 16.4497ZM14.2704 16.4497C12.144 16.4497 10.4202 14.7259 10.4202 12.5997C10.4202 10.4735 12.1438 8.74951 14.2704 8.74951C16.3968 8.74951 18.1204 10.4733 18.1204 12.5997C18.1142 14.7235 16.394 16.4435 14.2704 16.4497ZM14.2704 10.0329C12.8528 10.0329 11.7036 11.1821 11.7036 12.5997C11.7036 14.0173 12.8528 15.1665 14.2704 15.1665C15.688 15.1665 16.8372 14.0173 16.8372 12.5997C16.8327 11.1839 15.6862 10.0374 14.2704 10.0329Z" fill="black" stroke="black" stroke-width="0.5"/>
<path d="M14.2704 10.0328C14.0972 10.0434 13.9278 9.9791 13.8052 9.85645C13.7445 9.7958 13.6974 9.72297 13.667 9.64277C13.6366 9.56257 13.6236 9.47682 13.6288 9.39121V4.25781C13.6288 3.90352 13.9161 3.61621 14.2706 3.61621C14.6249 3.61621 14.9122 3.90352 14.9122 4.25781V9.38906C14.9228 9.56231 14.8585 9.73164 14.7358 9.8543C14.6752 9.91495 14.6024 9.96204 14.5222 9.99244C14.442 10.0228 14.3562 10.0359 14.2706 10.0307V10.0328H14.2704Z" fill="black" stroke="black" stroke-width="0.5"/>
<path d="M16.9657 7.46621C16.795 7.47109 16.6307 7.40078 16.5165 7.27363L14.2706 5.02773L12.0247 7.27363C11.7766 7.52168 11.3743 7.52168 11.1262 7.27363C10.8782 7.02559 10.8782 6.62344 11.1262 6.3752L13.8213 3.68008C13.8792 3.61919 13.9489 3.5707 14.0262 3.53756C14.1034 3.50442 14.1865 3.48732 14.2706 3.4873C14.4403 3.4873 14.6028 3.55703 14.7198 3.68008L17.4149 6.3752C17.4758 6.4331 17.5243 6.50279 17.5574 6.58001C17.5906 6.65723 17.6076 6.74038 17.6077 6.82441C17.6077 6.99414 17.5381 7.15664 17.4149 7.27363C17.3628 7.34151 17.2941 7.39486 17.2154 7.42858C17.1368 7.4623 17.0508 7.47526 16.9657 7.46621Z" fill="black" stroke="black" stroke-width="0.5"/>
</svg>
