<svg width="20" height="20" viewBox="0 0 20 20" fill="none" xmlns="http://www.w3.org/2000/svg">
<path d="M5.9291 11.316C5.16765 11.316 4.42329 11.0902 3.79016 10.6671C3.15703 10.2441 2.66356 9.6428 2.37217 8.9393C2.08077 8.2358 2.00453 7.4617 2.15308 6.71487C2.30163 5.96804 2.66831 5.28204 3.20674 4.74361C3.74517 4.20518 4.43118 3.8385 5.17801 3.68995C5.92483 3.54139 6.69894 3.61764 7.40243 3.90903C8.10593 4.20043 8.70722 4.69389 9.13026 5.32702C9.5533 5.96015 9.7791 6.70451 9.7791 7.46597C9.7791 8.48705 9.37348 9.46631 8.65146 10.1883C7.92945 10.9103 6.95019 11.316 5.9291 11.316ZM9.1371 13.241H2.7201C2.55435 13.2344 2.39756 13.164 2.2826 13.0444C2.16764 12.9248 2.10344 12.7654 2.10344 12.5995C2.10344 12.4336 2.16764 12.2741 2.2826 12.1546C2.39756 12.035 2.55435 11.9645 2.7201 11.958H9.1371C9.22348 11.9546 9.30965 11.9686 9.39046 11.9993C9.47126 12.03 9.54503 12.0767 9.60735 12.1366C9.66967 12.1965 9.71925 12.2684 9.75311 12.3479C9.78698 12.4275 9.80444 12.513 9.80444 12.5995C9.80444 12.6859 9.78698 12.7715 9.75311 12.851C9.71925 12.9305 9.66967 13.0024 9.60735 13.0623C9.54503 13.1222 9.47126 13.1689 9.39046 13.1996C9.30965 13.2303 9.22348 13.2444 9.1371 13.241Z" fill="black" stroke="black" stroke-width="0.5"/>
<path d="M5.92903 16.45C5.84335 16.4553 5.75753 16.4423 5.67726 16.4119C5.59698 16.3815 5.52408 16.3344 5.46338 16.2737C5.40268 16.213 5.35557 16.1401 5.32517 16.0598C5.29477 15.9795 5.28177 15.8937 5.28703 15.808V10.675C5.28703 10.5048 5.35467 10.3415 5.47507 10.2211C5.59546 10.1007 5.75876 10.033 5.92903 10.033C6.0993 10.033 6.26259 10.1007 6.38299 10.2211C6.50339 10.3415 6.57103 10.5048 6.57103 10.675V15.808C6.57596 15.8936 6.56274 15.9793 6.53222 16.0595C6.50171 16.1396 6.45459 16.2123 6.39396 16.273C6.33333 16.3336 6.26056 16.3807 6.18043 16.4112C6.1003 16.4418 6.01463 16.455 5.92903 16.45ZM14.271 16.45C13.5093 16.4502 12.7646 16.2245 12.1312 15.8015C11.4977 15.3784 11.004 14.7769 10.7124 14.0732C10.4208 13.3695 10.3444 12.5951 10.493 11.848C10.6415 11.1009 11.0083 10.4146 11.547 9.87598C12.0856 9.33735 12.7719 8.97056 13.519 8.822C14.2661 8.67344 15.0405 8.74978 15.7442 9.04138C16.4479 9.33298 17.0494 9.82672 17.4724 10.4602C17.8955 11.0936 18.1212 11.8383 18.121 12.6C18.1208 13.6211 17.7151 14.6002 16.9931 15.3221C16.2711 16.0441 15.292 16.4498 14.271 16.45Z" fill="black" stroke="black" stroke-width="0.5"/>
<path d="M14.2711 10.0329C14.1854 10.0382 14.0996 10.0252 14.0193 9.99476C13.939 9.96436 13.8661 9.91725 13.8054 9.85655C13.7447 9.79586 13.6976 9.72296 13.6672 9.64268C13.6368 9.56241 13.6238 9.47659 13.6291 9.39091V4.25791C13.6257 4.17154 13.6397 4.08536 13.6704 4.00456C13.7011 3.92375 13.7478 3.84998 13.8077 3.78766C13.8676 3.72534 13.9395 3.67576 14.019 3.6419C14.0986 3.60803 14.1841 3.59058 14.2706 3.59058C14.357 3.59058 14.4426 3.60803 14.5221 3.6419C14.6016 3.67576 14.6735 3.72534 14.7334 3.78766C14.7933 3.84998 14.84 3.92375 14.8707 4.00456C14.9014 4.08536 14.9155 4.17154 14.9121 4.25791V9.38891C14.9173 9.4745 14.9043 9.56023 14.874 9.64043C14.8437 9.72063 14.7966 9.79348 14.736 9.85416C14.6755 9.91484 14.6027 9.96197 14.5225 9.99244C14.4424 10.0229 14.3567 10.036 14.2711 10.0309V10.0329Z" fill="black" stroke="black" stroke-width="0.5"/>
<path d="M16.9661 7.4661C16.8817 7.46861 16.7977 7.45274 16.72 7.41959C16.6423 7.38643 16.5727 7.33679 16.5161 7.2741L14.2711 5.0281L12.0251 7.2741C11.966 7.33319 11.8959 7.38007 11.8187 7.41205C11.7414 7.44403 11.6587 7.46049 11.5751 7.46049C11.4915 7.46049 11.4088 7.44403 11.3316 7.41205C11.2544 7.38007 11.1842 7.33319 11.1251 7.2741C11.066 7.215 11.0191 7.14485 10.9872 7.06764C10.9552 6.99043 10.9387 6.90767 10.9387 6.8241C10.9387 6.74053 10.9552 6.65777 10.9872 6.58056C11.0191 6.50335 11.066 6.43319 11.1251 6.3741L13.8251 3.6791C13.883 3.61797 13.9528 3.56929 14.0302 3.53602C14.1076 3.50275 14.1909 3.4856 14.2751 3.4856C14.3593 3.4856 14.4427 3.50275 14.52 3.53602C14.5974 3.56929 14.6672 3.61797 14.7251 3.6791L17.4251 6.3791C17.4862 6.43703 17.5349 6.50681 17.5682 6.58418C17.6015 6.66155 17.6186 6.74488 17.6186 6.8291C17.6186 6.91332 17.6015 6.99665 17.5682 7.07402C17.5349 7.15139 17.4862 7.22117 17.4251 7.2791C17.3729 7.34682 17.3043 7.40003 17.2257 7.43364C17.147 7.46726 17.0611 7.48015 16.9761 7.4711L16.9661 7.4661Z" fill="black" stroke="black" stroke-width="0.5"/>
</svg>
