<svg width="20" height="20" viewBox="0 0 20 20" fill="none" xmlns="http://www.w3.org/2000/svg">
<path d="M17.3 10.05C17.3 14.0541 14.0541 17.3 10.05 17.3M17.3 10.05C17.3 6.04598 14.0541 2.80005 10.05 2.80005M17.3 10.05H2.80005M10.05 17.3C6.04598 17.3 2.80005 14.0541 2.80005 10.05M10.05 17.3C11.3847 17.3 12.4667 14.0541 12.4667 10.05C12.4667 6.04598 11.3847 2.80005 10.05 2.80005M10.05 17.3C8.71536 17.3 7.63338 14.0541 7.63338 10.05C7.63338 6.04598 8.71536 2.80005 10.05 2.80005M2.80005 10.05C2.80005 6.04598 6.04598 2.80005 10.05 2.80005" stroke="black" stroke-width="1.7" stroke-linecap="round" stroke-linejoin="round"/>
</svg>
