<svg width="20" height="20" viewBox="0 0 20 20" fill="none" xmlns="http://www.w3.org/2000/svg">
<path d="M8.91486 13.6666C9.09891 14.1873 9.67023 14.4602 10.1909 14.2762C10.7117 14.0921 10.9846 13.5208 10.8005 13.0001L8.91486 13.6666ZM4.19937 13.0001C4.01533 13.5208 4.28825 14.0921 4.80897 14.2762C5.32968 14.4602 5.90101 14.1873 6.08505 13.6666L4.19937 13.0001ZM12.5 8.16667C11.9477 8.16667 11.5 8.61438 11.5 9.16667C11.5 9.71895 11.9477 10.1667 12.5 10.1667V8.16667ZM15 10.1667C15.5523 10.1667 16 9.71895 16 9.16667C16 8.61438 15.5523 8.16667 15 8.16667V10.1667ZM12.5 11.5C11.9477 11.5 11.5 11.9477 11.5 12.5C11.5 13.0523 11.9477 13.5 12.5 13.5V11.5ZM14.1667 13.5C14.719 13.5 15.1667 13.0523 15.1667 12.5C15.1667 11.9477 14.719 11.5 14.1667 11.5V13.5ZM16.5 6.66667V14.1667H18.5V6.66667H16.5ZM15.8333 14.8333H4.16667V16.8333H15.8333V14.8333ZM3.5 14.1667V6.66667H1.5V14.1667H3.5ZM4.16667 6H8.33333V4H4.16667V6ZM11.6667 6H15.8333V4H11.6667V6ZM4.16667 14.8333C3.79848 14.8333 3.5 14.5349 3.5 14.1667H1.5C1.5 15.6394 2.69391 16.8333 4.16667 16.8333V14.8333ZM16.5 14.1667C16.5 14.5349 16.2015 14.8333 15.8333 14.8333V16.8333C17.3061 16.8333 18.5 15.6394 18.5 14.1667H16.5ZM18.5 6.66667C18.5 5.19391 17.3061 4 15.8333 4V6C16.2015 6 16.5 6.29848 16.5 6.66667H18.5ZM3.5 6.66667C3.5 6.29848 3.79848 6 4.16667 6V4C2.69391 4 1.5 5.19391 1.5 6.66667H3.5ZM8.16667 10C8.16667 10.3682 7.86819 10.6667 7.5 10.6667V12.6667C8.97276 12.6667 10.1667 11.4728 10.1667 10H8.16667ZM7.5 10.6667C7.13181 10.6667 6.83333 10.3682 6.83333 10H4.83333C4.83333 11.4728 6.02724 12.6667 7.5 12.6667V10.6667ZM6.83333 10C6.83333 9.63181 7.13181 9.33333 7.5 9.33333V7.33333C6.02724 7.33333 4.83333 8.52724 4.83333 10H6.83333ZM7.5 9.33333C7.86819 9.33333 8.16667 9.63181 8.16667 10H10.1667C10.1667 8.52724 8.97276 7.33333 7.5 7.33333V9.33333ZM7.5 12.6667C8.15153 12.6667 8.70846 13.0826 8.91486 13.6666L10.8005 13.0001C10.3205 11.6421 9.0255 10.6667 7.5 10.6667V12.6667ZM6.08505 13.6666C6.29144 13.0827 6.84843 12.6667 7.5 12.6667V10.6667C5.97454 10.6667 4.67938 11.642 4.19937 13.0001L6.08505 13.6666ZM12.5 10.1667H15V8.16667H12.5V10.1667ZM12.5 13.5H14.1667V11.5H12.5V13.5ZM10.6667 4.16667V5H12.6667V4.16667H10.6667ZM9.33333 5V4.16667H7.33333V5H9.33333ZM10 5.66667C9.63181 5.66667 9.33333 5.36819 9.33333 5H7.33333C7.33333 6.47276 8.52724 7.66667 10 7.66667V5.66667ZM10.6667 5C10.6667 5.36819 10.3682 5.66667 10 5.66667V7.66667C11.4728 7.66667 12.6667 6.47276 12.6667 5H10.6667ZM10 3.5C10.3682 3.5 10.6667 3.79848 10.6667 4.16667H12.6667C12.6667 2.69391 11.4728 1.5 10 1.5V3.5ZM10 1.5C8.52724 1.5 7.33333 2.69391 7.33333 4.16667H9.33333C9.33333 3.79848 9.63181 3.5 10 3.5V1.5Z" fill="black"/>
</svg>
