<svg width="20" height="20" viewBox="0 0 20 20" fill="none" xmlns="http://www.w3.org/2000/svg">
<path d="M4 10.3125V14.375C4 15.2725 4.72754 16 5.625 16H15.375C16.2725 16 17 15.2725 17 14.375V10.3125H14.899C14.6836 10.3125 14.4769 10.3981 14.3245 10.5505L12.363 12.512C12.2106 12.6644 12.0039 12.75 11.7885 12.75H9.21154C8.99606 12.75 8.7894 12.6644 8.63703 12.512L6.67547 10.5505C6.52311 10.3981 6.31644 10.3125 6.10095 10.3125H4Z" fill="black"/>
<path d="M4 14.375V4.625C4 3.72754 4.72754 3 5.625 3H7.25H13.75H15.375C16.2725 3 17 3.72754 17 4.625V14.375M4 14.375C4 15.2725 4.72754 16 5.625 16H15.375C16.2725 16 17 15.2725 17 14.375M4 14.375V10.3125H6.10095C6.31644 10.3125 6.52311 10.3981 6.67547 10.5505L8.63703 12.512C8.7894 12.6644 8.99606 12.75 9.21154 12.75H11.7885C12.0039 12.75 12.2106 12.6644 12.363 12.512L14.3245 10.5505C14.4769 10.3981 14.6836 10.3125 14.899 10.3125H17V14.375" stroke="black" stroke-width="1.7" stroke-linecap="round" stroke-linejoin="round"/>
</svg>
