<svg width="20" height="20" viewBox="0 0 20 20" fill="none" xmlns="http://www.w3.org/2000/svg">
<path d="M17.5001 7.5C17.5001 7.96024 17.127 8.33333 16.6667 8.33333C16.2065 8.33333 15.8334 7.96024 15.8334 7.5V5.3452L12.8862 8.29241C13.6896 9.34391 14.1667 10.6579 14.1667 12.0833C14.1667 15.5351 11.3685 18.3333 7.91675 18.3333C4.46497 18.3333 1.66675 15.5351 1.66675 12.0833C1.66675 8.63155 4.46497 5.83333 7.91675 5.83333C9.3422 5.83333 10.6562 6.31053 11.7077 7.1139L14.6549 4.16667H12.5001C12.0398 4.16667 11.6667 3.79357 11.6667 3.33333C11.6667 2.8731 12.0398 2.5 12.5001 2.5H16.4584C17.0337 2.5 17.5001 2.96637 17.5001 3.54167V7.5Z" fill="black"/>
</svg>
