<svg width="20" height="20" viewBox="0 0 20 20" fill="none" xmlns="http://www.w3.org/2000/svg">
<path fill-rule="evenodd" clip-rule="evenodd" d="M2.5 10C2.5 5.875 5.875 2.5 10 2.5C14.125 2.5 17.5 5.875 17.5 10C17.5 14.125 14.125 17.5 10 17.5C5.875 17.5 2.5 14.125 2.5 10ZM8.96875 7.65625C8.125 8.3125 7.65625 9.25 7.46875 10.2813L6.90625 13.6562C6.8125 14.4062 7.65625 14.9687 8.3125 14.5L10.9375 12.3437C11.7812 11.6875 12.25 10.75 12.4375 9.71875L13 6.34375C13.0937 5.59375 12.25 5.03125 11.5937 5.5L8.96875 7.65625Z" stroke="black" stroke-width="2" stroke-miterlimit="10"/>
</svg>
