<svg width="20" height="20" viewBox="0 0 20 20" fill="none" xmlns="http://www.w3.org/2000/svg">
<path fill-rule="evenodd" clip-rule="evenodd" d="M2 10C2 5.58172 5.58172 2 10 2C14.4183 2 18 5.58172 18 10C18 14.4183 14.4183 18 10 18C5.58172 18 2 14.4183 2 10ZM8.94841 7.53943C8.09486 8.24164 7.52463 9.22931 7.34327 10.3196L6.74285 13.9293C6.60423 14.7626 7.57321 15.3221 8.22561 14.7854L11.0515 12.4605C11.905 11.7583 12.4753 10.7707 12.6566 9.68036L13.257 6.07068C13.3957 5.23733 12.4267 4.67789 11.7743 5.21461L8.94841 7.53943Z" fill="black"/>
<path d="M8.62857 10C8.62857 9.24258 9.24258 8.62857 10 8.62857C10.7574 8.62857 11.3714 9.24258 11.3714 10C11.3714 10.7574 10.7574 11.3714 10 11.3714C9.24258 11.3714 8.62857 10.7574 8.62857 10Z" fill="black"/>
</svg>
