<svg width="20" height="20" viewBox="0 0 20 20" fill="none" xmlns="http://www.w3.org/2000/svg">
<path d="M5.82235 13.4422C5.84287 13.5662 5.90665 13.6789 6.00248 13.7603C6.0983 13.8417 6.21991 13.8865 6.34563 13.8866H13.6547C13.7802 13.8864 13.9016 13.8416 13.9973 13.7602C14.0929 13.6788 14.1566 13.5661 14.1768 13.4422L14.9467 8.95994C14.9633 8.86366 14.9532 8.76469 14.9171 8.67389C14.8811 8.58309 14.8205 8.50397 14.7424 8.44528C14.6643 8.38659 14.5717 8.35058 14.4744 8.34121C14.3772 8.33184 14.2791 8.34947 14.1912 8.39218L12.1434 9.39217L10.4646 6.37219C10.414 6.2954 10.3451 6.23235 10.2641 6.18874C10.1831 6.14513 10.0926 6.12231 10.0007 6.12231C9.90872 6.12231 9.81825 6.14513 9.73729 6.18874C9.65632 6.23235 9.58742 6.2954 9.53682 6.37219L7.85794 9.39217L5.80906 8.39218C5.72119 8.34947 5.62311 8.33184 5.52586 8.34121C5.42861 8.35058 5.33595 8.38659 5.25785 8.44528C5.17974 8.50397 5.11948 8.58309 5.08342 8.67389C5.04737 8.76469 5.03701 8.86366 5.05358 8.95994L5.82235 13.4422Z" fill="black"/>
</svg>
