<svg width="20" height="20" viewBox="0 0 20 20" fill="none" xmlns="http://www.w3.org/2000/svg">
<path d="M11 7.5C11 6.94772 10.5523 6.5 10 6.5C9.44772 6.5 9 6.94772 9 7.5H11ZM9 12.5C9 13.0523 9.44772 13.5 10 13.5C10.5523 13.5 11 13.0523 11 12.5H9ZM12.5 11C13.0523 11 13.5 10.5523 13.5 10C13.5 9.44772 13.0523 9 12.5 9V11ZM7.5 9C6.94772 9 6.5 9.44772 6.5 10C6.5 10.5523 6.94772 11 7.5 11V9ZM9 7.5V10H11V7.5H9ZM9 10V12.5H11V10H9ZM12.5 9H10V11H12.5V9ZM10 9H7.5V11H10V9ZM16.5 10C16.5 13.5899 13.5899 16.5 10 16.5V18.5C14.6944 18.5 18.5 14.6944 18.5 10H16.5ZM10 16.5C6.41015 16.5 3.5 13.5899 3.5 10H1.5C1.5 14.6944 5.30558 18.5 10 18.5V16.5ZM3.5 10C3.5 6.41015 6.41015 3.5 10 3.5V1.5C5.30558 1.5 1.5 5.30558 1.5 10H3.5ZM10 3.5C13.5899 3.5 16.5 6.41015 16.5 10H18.5C18.5 5.30558 14.6944 1.5 10 1.5V3.5Z" fill="black"/>
</svg>
