<svg width="20" height="20" viewBox="0 0 20 20" fill="none" xmlns="http://www.w3.org/2000/svg">
<path d="M2.08374 5C2.08374 5.69167 2.64207 6.25 3.33374 6.25H6.25041V15C6.25041 15.6917 6.80874 16.25 7.50041 16.25C8.19207 16.25 8.75041 15.6917 8.75041 15V6.25H11.6671C12.3587 6.25 12.9171 5.69167 12.9171 5C12.9171 4.30833 12.3587 3.75 11.6671 3.75H3.33374C2.64207 3.75 2.08374 4.30833 2.08374 5ZM16.6671 7.91667H11.6671C10.9754 7.91667 10.4171 8.475 10.4171 9.16667C10.4171 9.85833 10.9754 10.4167 11.6671 10.4167H12.9171V15C12.9171 15.6917 13.4754 16.25 14.1671 16.25C14.8587 16.25 15.4171 15.6917 15.4171 15V10.4167H16.6671C17.3587 10.4167 17.9171 9.85833 17.9171 9.16667C17.9171 8.475 17.3587 7.91667 16.6671 7.91667Z" fill="black"/>
</svg>
