<svg width="20" height="20" viewBox="0 0 20 20" fill="none" xmlns="http://www.w3.org/2000/svg">
<path d="M4.33325 13.3334C4.33325 12.7811 3.88554 12.3334 3.33325 12.3334C2.78097 12.3334 2.33325 12.7811 2.33325 13.3334L4.33325 13.3334ZM17.6666 13.3334C17.6666 12.7811 17.2189 12.3334 16.6666 12.3334C16.1143 12.3334 15.6666 12.7811 15.6666 13.3334L17.6666 13.3334ZM12.6261 7.37385C13.0167 7.76438 13.6498 7.76438 14.0404 7.37385C14.4309 6.98333 14.4309 6.35016 14.0404 5.95964L12.6261 7.37385ZM9.99992 3.33341L10.707 2.62631C10.5195 2.43877 10.2651 2.33341 9.99992 2.33341C9.7347 2.33341 9.48035 2.43877 9.29281 2.62631L9.99992 3.33341ZM5.95948 5.95964C5.56895 6.35017 5.56895 6.98333 5.95948 7.37385C6.35 7.76438 6.98317 7.76438 7.37369 7.37385L5.95948 5.95964ZM8.99992 13.3334C8.99992 13.8857 9.44763 14.3334 9.99992 14.3334C10.5522 14.3334 10.9999 13.8857 10.9999 13.3334L8.99992 13.3334ZM14.1666 15.6667L5.83325 15.6667L5.83325 17.6667L14.1666 17.6667L14.1666 15.6667ZM4.33325 14.1667L4.33325 13.3334L2.33325 13.3334L2.33325 14.1667L4.33325 14.1667ZM15.6666 13.3334L15.6666 14.1667L17.6666 14.1667L17.6666 13.3334L15.6666 13.3334ZM14.1666 17.6667C16.0996 17.6667 17.6666 16.0997 17.6666 14.1667L15.6666 14.1667C15.6666 14.9952 14.995 15.6667 14.1666 15.6667L14.1666 17.6667ZM5.83325 15.6667C5.00482 15.6667 4.33325 14.9952 4.33325 14.1667L2.33325 14.1667C2.33325 16.0997 3.90026 17.6667 5.83325 17.6667L5.83325 15.6667ZM14.0404 5.95964L10.707 2.62631L9.29281 4.04052L12.6261 7.37385L14.0404 5.95964ZM9.29281 2.62631L5.95948 5.95964L7.37369 7.37385L10.707 4.04052L9.29281 2.62631ZM8.99992 3.33341L8.99992 13.3334L10.9999 13.3334L10.9999 3.33341L8.99992 3.33341Z" fill="black"/>
</svg>
