<svg width="20" height="20" viewBox="0 0 20 20" fill="none" xmlns="http://www.w3.org/2000/svg">
<path d="M13 16V14.6667C13 13.9594 12.719 13.2811 12.219 12.781C11.7189 12.281 11.0406 12 10.3333 12H5.66667C4.95942 12 4.28115 12.281 3.78105 12.781C3.28095 13.2811 3 13.9594 3 14.6667V16" stroke="black" stroke-width="2" stroke-linecap="round" stroke-linejoin="round"/>
<path d="M14 9.5L15.3333 11L18 8" stroke="black" stroke-width="2" stroke-linecap="round" stroke-linejoin="round"/>
<path d="M7.88989 9C9.2706 9 10.3899 7.88071 10.3899 6.5C10.3899 5.11929 9.2706 4 7.88989 4C6.50918 4 5.38989 5.11929 5.38989 6.5C5.38989 7.88071 6.50918 9 7.88989 9Z" stroke="black" stroke-width="2" stroke-linecap="round" stroke-linejoin="round"/>
</svg>
