<svg width="20" height="20" viewBox="0 0 20 20" fill="none" xmlns="http://www.w3.org/2000/svg">
<path d="M13.23 16.1701V14.8067C13.23 14.0836 12.9426 13.3901 12.431 12.8787C11.9194 12.3674 11.2255 12.0801 10.502 12.0801H5.728C5.00449 12.0801 4.31061 12.3674 3.79901 12.8787C3.28741 13.3901 3 14.0836 3 14.8067V16.1701" stroke="black" stroke-width="2" stroke-linecap="round" stroke-linejoin="round"/>
<path d="M16 8V12" stroke="black" stroke-width="2" stroke-linecap="round" stroke-linejoin="round"/>
<path d="M18 10H14" stroke="black" stroke-width="2" stroke-linecap="round" stroke-linejoin="round"/>
<path d="M8.11489 9.45C9.61987 9.45 10.8399 8.22998 10.8399 6.725C10.8399 5.22002 9.61987 4 8.11489 4C6.60992 4 5.38989 5.22002 5.38989 6.725C5.38989 8.22998 6.60992 9.45 8.11489 9.45Z" stroke="black" stroke-width="2" stroke-linecap="round" stroke-linejoin="round"/>
</svg>
