<svg width="20" height="20" viewBox="0 0 20 20" fill="none" xmlns="http://www.w3.org/2000/svg">
<path d="M13 16V14.6667C13 13.9594 12.719 13.2811 12.219 12.781C11.7189 12.281 11.0406 12 10.3333 12H5.66667C4.95942 12 4.28115 12.281 3.78105 12.781C3.28095 13.2811 3 13.9594 3 14.6667V16" stroke="black" stroke-width="2" stroke-linecap="round" stroke-linejoin="round"/>
<path d="M17 9H13" stroke="black" stroke-width="2" stroke-linecap="round" stroke-linejoin="round"/>
<path d="M7.80005 9C9.18076 9 10.3 7.88071 10.3 6.5C10.3 5.11929 9.18076 4 7.80005 4C6.41934 4 5.30005 5.11929 5.30005 6.5C5.30005 7.88071 6.41934 9 7.80005 9Z" stroke="black" stroke-width="2" stroke-linecap="round" stroke-linejoin="round"/>
</svg>
