<svg width="20" height="20" viewBox="0 0 20 20" fill="none" xmlns="http://www.w3.org/2000/svg">
<path d="M13.2273 16.2728V14.9092C13.2273 14.1858 12.9399 13.4921 12.4285 12.9807C11.917 12.4692 11.2233 12.1819 10.5 12.1819H5.72727C5.00395 12.1819 4.31026 12.4692 3.7988 12.9807C3.28734 13.4921 3 14.1858 3 14.9092V16.2728" stroke="black" stroke-width="2" stroke-linecap="round" stroke-linejoin="round"/>
<path d="M14.5911 7.40918L18.0002 10.8183" stroke="black" stroke-width="2" stroke-linecap="round" stroke-linejoin="round"/>
<path d="M18.0002 7.40918L14.5911 10.8183" stroke="black" stroke-width="2" stroke-linecap="round" stroke-linejoin="round"/>
<path d="M8.1135 9.45454C9.61973 9.45454 10.8408 8.2335 10.8408 6.72727C10.8408 5.22104 9.61973 4 8.1135 4C6.60727 4 5.38623 5.22104 5.38623 6.72727C5.38623 8.2335 6.60727 9.45454 8.1135 9.45454Z" stroke="black" stroke-width="2" stroke-linecap="round" stroke-linejoin="round"/>
</svg>
