<svg width="20" height="20" viewBox="0 0 20 20" fill="none" xmlns="http://www.w3.org/2000/svg">
<path d="M3.33325 4.99992C3.33325 4.07944 4.07944 3.33325 4.99992 3.33325H6.66659C7.58706 3.33325 8.33325 4.07944 8.33325 4.99992V6.66659C8.33325 7.58706 7.58706 8.33325 6.66659 8.33325H4.99992C4.07944 8.33325 3.33325 7.58706 3.33325 6.66659V4.99992Z" stroke="black" stroke-width="2" stroke-linecap="round" stroke-linejoin="round"/>
<path d="M11.6666 4.99992C11.6666 4.07944 12.4128 3.33325 13.3333 3.33325H14.9999C15.9204 3.33325 16.6666 4.07944 16.6666 4.99992V6.66659C16.6666 7.58706 15.9204 8.33325 14.9999 8.33325H13.3333C12.4128 8.33325 11.6666 7.58706 11.6666 6.66659V4.99992Z" stroke="black" stroke-width="2" stroke-linecap="round" stroke-linejoin="round"/>
<path d="M3.33325 13.3333C3.33325 12.4128 4.07944 11.6666 4.99992 11.6666H6.66659C7.58706 11.6666 8.33325 12.4128 8.33325 13.3333V14.9999C8.33325 15.9204 7.58706 16.6666 6.66659 16.6666H4.99992C4.07944 16.6666 3.33325 15.9204 3.33325 14.9999V13.3333Z" stroke="black" stroke-width="2" stroke-linecap="round" stroke-linejoin="round"/>
<path d="M11.6666 13.3333C11.6666 12.4128 12.4128 11.6666 13.3333 11.6666H14.9999C15.9204 11.6666 16.6666 12.4128 16.6666 13.3333V14.9999C16.6666 15.9204 15.9204 16.6666 14.9999 16.6666H13.3333C12.4128 16.6666 11.6666 15.9204 11.6666 14.9999V13.3333Z" stroke="black" stroke-width="2" stroke-linecap="round" stroke-linejoin="round"/>
</svg>
