<svg width="20" height="20" viewBox="0 0 20 20" fill="none" xmlns="http://www.w3.org/2000/svg">
<path d="M4.65482 12.5001L5.36193 11.793C5.17439 11.6055 4.92004 11.5001 4.65482 11.5001V12.5001ZM4.65482 7.50012V8.50012C4.92004 8.50012 5.17439 8.39477 5.36193 8.20723L4.65482 7.50012ZM8.57741 3.57754L9.28452 4.28464V4.28464L8.57741 3.57754ZM8.57741 16.4227L7.8703 17.1298L8.57741 16.4227ZM13.6534 6.34671C13.2629 5.95618 12.6297 5.95618 12.2392 6.34671C11.8486 6.73723 11.8486 7.3704 12.2392 7.76092L13.6534 6.34671ZM12.2392 12.2393C11.8486 12.6298 11.8486 13.263 12.2392 13.6535C12.6297 14.044 13.2629 14.044 13.6534 13.6535L12.2392 12.2393ZM16.0105 3.98963C15.6199 3.59911 14.9868 3.59911 14.5962 3.98963C14.2057 4.38015 14.2057 5.01332 14.5962 5.40384L16.0105 3.98963ZM14.5962 14.5962C14.2057 14.9868 14.2057 15.6199 14.5962 16.0104C14.9868 16.401 15.6199 16.401 16.0105 16.0104L14.5962 14.5962ZM4.65482 11.5001H3.33333V13.5001H4.65482V11.5001ZM3.33333 11.5001C3.42538 11.5001 3.5 11.5747 3.5 11.6668H1.5C1.5 12.6793 2.32081 13.5001 3.33333 13.5001V11.5001ZM3.5 11.6668V8.33346H1.5V11.6668H3.5ZM3.5 8.33346C3.5 8.42551 3.42538 8.50012 3.33333 8.50012V6.50012C2.32081 6.50012 1.5 7.32094 1.5 8.33346H3.5ZM3.33333 8.50012H4.65482V6.50012H3.33333V8.50012ZM5.36193 8.20723L9.28452 4.28464L7.8703 2.87043L3.94772 6.79302L5.36193 8.20723ZM9.28452 4.28464C9.26822 4.30094 9.23471 4.32163 9.19186 4.32906C9.15446 4.33553 9.12435 4.32966 9.10289 4.32077C9.08143 4.31188 9.05598 4.29474 9.03412 4.26372C9.00906 4.22817 9 4.18984 9 4.16679H11C11 2.53347 9.02524 1.71549 7.8703 2.87043L9.28452 4.28464ZM9 4.16679V15.8335H11V4.16679H9ZM9 15.8335C9 15.8104 9.00906 15.7721 9.03412 15.7365C9.05598 15.7055 9.08143 15.6884 9.10289 15.6795C9.12434 15.6706 9.15446 15.6647 9.19185 15.6712C9.23471 15.6786 9.26822 15.6993 9.28452 15.7156L7.8703 17.1298C9.02524 18.2848 11 17.4668 11 15.8335H9ZM9.28452 15.7156L5.36193 11.793L3.94772 13.2072L7.8703 17.1298L9.28452 15.7156ZM12.2392 7.76092C13.4758 8.99758 13.4758 11.0026 12.2392 12.2393L13.6534 13.6535C15.6711 11.6358 15.6711 8.36442 13.6534 6.34671L12.2392 7.76092ZM14.5962 5.40384C17.1346 7.94225 17.1346 12.0578 14.5962 14.5962L16.0105 16.0104C19.3299 12.691 19.3299 7.30909 16.0105 3.98963L14.5962 5.40384Z" fill="black"/>
</svg>
