<svg width="20" height="20" viewBox="0 0 20 20" fill="none" xmlns="http://www.w3.org/2000/svg">
<path d="M4.65482 12.5001L5.36193 11.793C5.17439 11.6055 4.92004 11.5001 4.65482 11.5001V12.5001ZM4.65482 7.50012V8.50012C4.92004 8.50012 5.17439 8.39477 5.36193 8.20723L4.65482 7.50012ZM8.57741 3.57754L9.28452 4.28464V4.28464L8.57741 3.57754ZM8.57741 16.4227L7.8703 17.1298L8.57741 16.4227ZM13.4596 10.9596C13.069 11.3502 13.069 11.9833 13.4596 12.3739C13.8501 12.7644 14.4832 12.7644 14.8738 12.3739L13.4596 10.9596ZM18.2071 9.04052C18.5976 8.65 18.5976 8.01683 18.2071 7.62631C17.8166 7.23578 17.1834 7.23578 16.7929 7.62631L18.2071 9.04052ZM14.8738 7.62631C14.4832 7.23578 13.8501 7.23578 13.4596 7.62631C13.069 8.01683 13.069 8.65 13.4596 9.04052L14.8738 7.62631ZM16.7929 12.3739C17.1834 12.7644 17.8166 12.7644 18.2071 12.3739C18.5976 11.9833 18.5976 11.3502 18.2071 10.9596L16.7929 12.3739ZM4.65482 11.5001H3.33333V13.5001H4.65482V11.5001ZM3.33333 11.5001C3.42538 11.5001 3.5 11.5747 3.5 11.6668H1.5C1.5 12.6793 2.32081 13.5001 3.33333 13.5001V11.5001ZM3.5 11.6668V8.33346H1.5V11.6668H3.5ZM3.5 8.33346C3.5 8.42551 3.42538 8.50012 3.33333 8.50012V6.50012C2.32081 6.50012 1.5 7.32094 1.5 8.33346H3.5ZM3.33333 8.50012H4.65482V6.50012H3.33333V8.50012ZM5.36193 8.20723L9.28452 4.28464L7.8703 2.87043L3.94772 6.79302L5.36193 8.20723ZM9.28452 4.28464C9.26822 4.30094 9.23471 4.32163 9.19186 4.32906C9.15446 4.33553 9.12435 4.32966 9.10289 4.32077C9.08143 4.31188 9.05598 4.29474 9.03412 4.26372C9.00906 4.22817 9 4.18984 9 4.16679H11C11 2.53347 9.02524 1.71549 7.8703 2.87043L9.28452 4.28464ZM9 4.16679V15.8335H11V4.16679H9ZM9 15.8335C9 15.8104 9.00906 15.7721 9.03412 15.7365C9.05598 15.7055 9.08143 15.6884 9.10289 15.6795C9.12434 15.6706 9.15446 15.6647 9.19185 15.6712C9.23471 15.6786 9.26822 15.6993 9.28452 15.7156L7.8703 17.1298C9.02524 18.2848 11 17.4668 11 15.8335H9ZM9.28452 15.7156L5.36193 11.793L3.94772 13.2072L7.8703 17.1298L9.28452 15.7156ZM14.8738 12.3739L16.5404 10.7072L15.1262 9.29298L13.4596 10.9596L14.8738 12.3739ZM16.5404 10.7072L18.2071 9.04052L16.7929 7.62631L15.1262 9.29298L16.5404 10.7072ZM13.4596 9.04052L15.1262 10.7072L16.5404 9.29298L14.8738 7.62631L13.4596 9.04052ZM15.1262 10.7072L16.7929 12.3739L18.2071 10.9596L16.5404 9.29298L15.1262 10.7072Z" fill="black"/>
</svg>
